<svg width="40" height="46" xmlns="http://www.w3.org/2000/svg"><g fill="none" fill-rule="evenodd"><g fill="#FF7533"><path d="M8.571 40.25c-1.714 0-2.857-1.15-2.857-2.875S7.143 34.5 8.571 34.5h28.512c-.172 1.46-.157 4.347.047 5.75H8.571z" opacity=".4"/><path d="M8.571 34.5h29.286A2.15 2.15 0 0040 32.344V2.875A2.866 2.866 0 0037.143 0H8.57C3.838 0 0 3.862 0 8.625v28.75C0 42.138 3.838 46 8.571 46h29.286A2.15 2.15 0 0040 43.844v-1.438a2.15 2.15 0 00-2.143-2.156H8.571c-1.714 0-2.857-1.15-2.857-2.875S7.143 34.5 8.571 34.5z"/></g><g fill="#FFF"><path d="M23.624 8.235a.428.428 0 01.292.535L19.049 25.65a.43.43 0 01-.531.294l-2.175-.635a.428.428 0 01-.293-.535l4.867-16.881a.43.43 0 01.531-.295l2.176.636z" opacity=".598"/><path d="M31.258 16.46l-5.138-4.854a.43.43 0 00-.606.018l-1.552 1.667a.433.433 0 00.03.618l3.229 2.865-3.23 2.861a.43.43 0 00-.03.618l1.552 1.666a.427.427 0 00.606.021l5.139-4.85a.43.43 0 000-.63zm-15.254-3.167l-1.551-1.665a.427.427 0 00-.607-.018l-5.138 4.846a.43.43 0 000 .629l5.138 4.85a.423.423 0 00.607-.018l1.55-1.666a.433.433 0 00-.028-.617l-3.232-2.86 3.231-2.862a.43.43 0 00.03-.619z" fill-rule="nonzero"/></g></g></svg>